<svg width="32" height="32" viewBox="0 0 32 32" fill="none" xmlns="http://www.w3.org/2000/svg">
<path d="M25.8803 14.4732H28.6624C28.5776 13.047 28.2638 11.6438 27.7332 10.3175L25.2905 11.7297C25.6021 12.5973 25.8066 13.5165 25.8803 14.4732ZM21.0352 3.22473C19.6833 2.58007 18.2316 2.17036 16.7424 2.01311V4.82768C17.7428 4.9584 18.7192 5.23279 19.6414 5.64238L21.0352 3.22473ZM24.0135 9.25077L26.4353 7.85115C25.6094 6.63165 24.5886 5.55654 23.414 4.66892L22.0145 7.09493C22.7775 7.71722 23.4503 8.4428 24.0135 9.25077ZM15.35 25.8917C12.5461 25.8917 9.85703 24.7766 7.87438 22.7916C5.89173 20.8067 4.77789 18.1146 4.77789 15.3074C4.77789 10.3648 8.16473 6.22354 12.74 5.06078C13.4293 4.8856 13.9603 4.29464 13.9603 3.58342C13.9603 2.7429 13.2295 2.08093 12.4095 2.26541C6.44827 3.60643 1.99577 8.93582 1.99577 15.3074C1.99558 17.0634 2.34091 18.8022 3.01203 20.4245C3.68314 22.0468 4.6669 23.5209 5.90712 24.7625C7.14734 26.0042 8.61972 26.9891 10.2402 27.661C11.8606 28.3328 13.5974 28.6786 15.3514 28.6784C21.4955 28.6784 26.6589 24.5185 28.2117 18.8595C28.4399 18.0277 27.7733 17.2586 26.9107 17.2586C26.2296 17.2586 25.6549 17.7482 25.4564 18.3998C24.1353 22.7355 20.1131 25.8917 15.35 25.8917Z" fill="white"/>
<circle cx="15.5" cy="15.5" r="4.5" fill="white"/>
</svg>
