<svg width="12" height="12" viewBox="0 0 12 12" fill="none" xmlns="http://www.w3.org/2000/svg">
<path d="M4.49996 5.99997H5.99996H4.49996ZM7.49996 5.99997H5.99996H7.49996ZM5.99996 5.99997V4.49997V5.99997ZM5.99996 5.99997V7.49997V5.99997ZM5.84996 0.586575C5.94276 0.53299 6.05716 0.53299 6.14996 0.58658L10.6131 3.16337C10.7059 3.21696 10.7631 3.316 10.7631 3.42318V8.57678C10.7631 8.68393 10.7059 8.78298 10.6131 8.83658L6.14996 11.4134C6.05716 11.467 5.94276 11.467 5.84996 11.4134L1.38682 8.83658C1.294 8.78298 1.23682 8.68393 1.23682 8.57678V3.42318C1.23682 3.316 1.294 3.21696 1.38682 3.16337L5.84996 0.586575Z" fill="#00F0FF" stroke="#00F0FF" stroke-linecap="round" stroke-linejoin="round"/>
<path d="M4 6H6M6 6H8M6 6V4M6 6V8" stroke="#191A29" stroke-linecap="round" stroke-linejoin="round"/>
</svg>
