<svg width="32" height="32" viewBox="0 0 32 32" fill="none" xmlns="http://www.w3.org/2000/svg">
<path d="M7.10663 21.2386C6.81311 19.9576 6.6655 18.6475 6.66663 17.3333C6.66663 10.5493 10.5373 4.75195 16 2.42395C21.4626 4.75195 25.3333 10.5493 25.3333 17.3333C25.3333 18.68 25.1813 19.988 24.8933 21.2386L27.5866 23.6333C27.7026 23.7364 27.7789 23.8767 27.8025 24.03C27.8261 24.1833 27.7955 24.3401 27.716 24.4733L24.4386 29.9346C24.3865 30.0214 24.3152 30.0951 24.2303 30.1503C24.1454 30.2054 24.049 30.2405 23.9485 30.2528C23.848 30.2652 23.746 30.2544 23.6503 30.2215C23.5545 30.1885 23.4676 30.1342 23.396 30.0626L20.3906 27.0573C20.1406 26.8072 19.8016 26.6667 19.448 26.6666H12.552C12.1984 26.6667 11.8593 26.8072 11.6093 27.0573L8.60396 30.0626C8.53235 30.1342 8.44538 30.1885 8.34964 30.2215C8.2539 30.2544 8.15192 30.2652 8.05142 30.2528C7.95093 30.2405 7.85456 30.2054 7.76964 30.1503C7.68471 30.0951 7.61346 30.0214 7.5613 29.9346L4.28396 24.4746C4.20406 24.3413 4.17326 24.1842 4.19687 24.0306C4.22049 23.877 4.29704 23.7365 4.41329 23.6333L7.10663 21.2386ZM16 17.3333C16.7072 17.3333 17.3855 17.0523 17.8856 16.5522C18.3857 16.0521 18.6666 15.3739 18.6666 14.6666C18.6666 13.9594 18.3857 13.2811 17.8856 12.781C17.3855 12.2809 16.7072 12 16 12C15.2927 12 14.6144 12.2809 14.1143 12.781C13.6142 13.2811 13.3333 13.9594 13.3333 14.6666C13.3333 15.3739 13.6142 16.0521 14.1143 16.5522C14.6144 17.0523 15.2927 17.3333 16 17.3333Z" fill="#38D9A9"/>
</svg>
