<svg width="32" height="32" viewBox="0 0 32 32" fill="none" xmlns="http://www.w3.org/2000/svg">
<path d="M26.6666 20.4134L29.1999 17.88C30.2399 16.84 30.2399 15.1467 29.1999 14.1067L26.6666 11.5867V8.00002C26.6666 6.53335 25.4666 5.33335 23.9999 5.33335H20.4133L17.8799 2.80002C16.8399 1.76002 15.1466 1.76002 14.1066 2.80002L11.5866 5.33335H7.99994C6.53327 5.33335 5.33327 6.53335 5.33327 8.00002V11.5867L2.79994 14.12C1.75994 15.16 1.75994 16.8534 2.79994 17.8934L5.33327 20.4267V24C5.33327 25.4667 6.53327 26.6667 7.99994 26.6667H11.5866L14.1199 29.2C15.1599 30.24 16.8533 30.24 17.8933 29.2L20.4266 26.6667H23.9999C25.4666 26.6667 26.6666 25.4667 26.6666 24V20.4134Z" fill="white"/>
<path d="M23.6299 19.1569L25.4421 17.3448C26.186 16.6009 26.186 15.3896 25.4421 14.6457L23.6299 12.8431V10.2775C23.6299 9.22842 22.7716 8.37005 21.7225 8.37005H19.1569L17.3448 6.55794C16.6009 5.81402 15.3896 5.81402 14.6457 6.55794L12.8431 8.37005H10.2775C9.22842 8.37005 8.37005 9.22842 8.37005 10.2775V12.8431L6.55794 14.6552C5.81402 15.3991 5.81402 16.6104 6.55794 17.3543L8.37005 19.1664V21.7225C8.37005 22.7716 9.22842 23.6299 10.2775 23.6299H12.8431L14.6552 25.4421C15.3991 26.186 16.6104 26.186 17.3543 25.4421L19.1664 23.6299H21.7225C22.7716 23.6299 23.6299 22.7716 23.6299 21.7225V19.1569Z" fill="white"/>
</svg>
